<svg width="24" height="24" viewBox="0 0 24 24" fill="none" xmlns="http://www.w3.org/2000/svg">
<path d="M12 22C6.48372 22 2 17.5163 2 12C2 6.48372 6.48372 2 12 2C17.5163 2 22 6.48372 22 12C22 17.5163 17.5163 22 12 22ZM12 3.39535C7.25581 3.39535 3.39535 7.25581 3.39535 12C3.39535 16.7442 7.25581 20.6047 12 20.6047C16.7442 20.6047 20.6047 16.7442 20.6047 12C20.6047 7.25581 16.7442 3.39535 12 3.39535Z" fill="white"/>
<path d="M15.53 14.01C15.34 14.01 15.15 13.94 15 13.79L12 10.79L9.00003 13.79C8.71003 14.08 8.23003 14.08 7.94003 13.79C7.65003 13.5 7.65003 13.02 7.94003 12.73L11.47 9.20004C11.76 8.91004 12.24 8.91004 12.53 9.20004L16.06 12.73C16.35 13.02 16.35 13.5 16.06 13.79C15.91 13.94 15.72 14.01 15.53 14.01Z" fill="white"/>
</svg>
