<svg width="28" height="28" viewBox="0 0 28 28" fill="none" xmlns="http://www.w3.org/2000/svg">
<path d="M26.285 15.657L24.5933 13.9653L26.2267 12.332C26.565 11.9936 26.565 11.4336 26.2267 11.0953C25.8883 10.757 25.3283 10.757 24.99 11.0953L23.3567 12.7286L21.665 11.037C21.3267 10.6986 20.7667 10.6986 20.4283 11.037C20.09 11.3753 20.09 11.9353 20.4283 12.2736L22.12 13.9653L20.3817 15.7036C20.0433 16.042 20.0433 16.602 20.3817 16.9403C20.5567 17.1153 20.7783 17.197 21 17.197C21.2217 17.197 21.4433 17.1153 21.6183 16.9403L23.3567 15.202L25.0483 16.8936C25.2233 17.0686 25.445 17.1503 25.6667 17.1503C25.8883 17.1503 26.11 17.0686 26.285 16.8936C26.6233 16.5553 26.6233 16.007 26.285 15.657Z" fill="white"/>
<path d="M16.3566 4.41C15.0499 3.68667 13.3816 3.87334 11.6783 4.935L8.27159 7.07C8.03825 7.21 7.76992 7.29167 7.50159 7.29167H6.41658H5.83325C3.00992 7.29167 1.45825 8.84334 1.45825 11.6667V16.3333C1.45825 19.1567 3.00992 20.7083 5.83325 20.7083H6.41658H7.50159C7.76992 20.7083 8.03825 20.79 8.27159 20.93L11.6783 23.065C12.7049 23.7067 13.7083 24.0217 14.6416 24.0217C15.2483 24.0217 15.8316 23.8817 16.3566 23.59C17.6516 22.8667 18.3749 21.3617 18.3749 19.355V8.645C18.3749 6.63834 17.6516 5.13334 16.3566 4.41Z" fill="white"/>
</svg>
