<svg width="20" height="20" viewBox="0 0 20 20" fill="none" xmlns="http://www.w3.org/2000/svg">
<g clip-path="url(#clip0_1750_5227)">
<path d="M13.7501 12.5002C13.3332 12.4995 12.9205 12.5829 12.5366 12.7453C12.1527 12.9077 11.8055 13.1459 11.5157 13.4455L7.91413 11.133C8.19527 10.404 8.19527 9.59643 7.91413 8.86739L11.5157 6.55489C12.0224 7.07305 12.6934 7.39901 13.4139 7.47698C14.1344 7.55495 14.8596 7.38007 15.4653 6.98229C16.0711 6.5845 16.5198 5.98854 16.7346 5.2964C16.9494 4.60425 16.917 3.85897 16.6429 3.1881C16.3688 2.51724 15.87 1.9625 15.232 1.61884C14.5939 1.27517 13.8563 1.16395 13.1453 1.3042C12.4343 1.44446 11.7941 1.82747 11.3344 2.38769C10.8746 2.94791 10.6239 3.65049 10.6251 4.3752C10.6263 4.76245 10.6978 5.14627 10.836 5.50801L7.23444 7.82051C6.80083 7.37504 6.24422 7.06902 5.63576 6.94157C5.02731 6.81413 4.39467 6.87106 3.81874 7.10507C3.24281 7.33909 2.74976 7.73956 2.40265 8.25529C2.05553 8.77101 1.87012 9.37854 1.87012 10.0002C1.87012 10.6219 2.05553 11.2294 2.40265 11.7451C2.74976 12.2608 3.24281 12.6613 3.81874 12.8953C4.39467 13.1293 5.02731 13.1863 5.63576 13.0588C6.24422 12.9314 6.80083 12.6254 7.23444 12.1799L10.836 14.4924C10.6978 14.8541 10.6263 15.2379 10.6251 15.6252C10.6251 16.2433 10.8083 16.8474 11.1517 17.3614C11.4951 17.8753 11.9832 18.2758 12.5542 18.5123C13.1252 18.7488 13.7535 18.8107 14.3597 18.6901C14.9659 18.5696 15.5227 18.2719 15.9598 17.8349C16.3968 17.3979 16.6944 16.841 16.815 16.2349C16.9356 15.6287 16.8737 15.0003 16.6372 14.4293C16.4007 13.8583 16.0001 13.3702 15.4862 13.0269C14.9723 12.6835 14.3681 12.5002 13.7501 12.5002Z" fill="white"/>
</g>
<defs>
<clipPath id="clip0_1750_5227">
<rect width="20" height="20" fill="white"/>
</clipPath>
</defs>
</svg>
