<svg width="38" height="38" viewBox="0 0 38 38" fill="none" xmlns="http://www.w3.org/2000/svg">
<path d="M0 19C0 8.50659 8.50659 0 19 0C29.4934 0 38 8.50659 38 19C38 29.4934 29.4934 38 19 38C8.50659 38 0 29.4934 0 19Z" fill="white"/>
<path d="M24 10.5H14C11 10.5 9 12 9 15.5V22.5C9 26 11 27.5 14 27.5H24C27 27.5 29 26 29 22.5V15.5C29 12 27 10.5 24 10.5ZM24.47 16.59L21.34 19.09C20.68 19.62 19.84 19.88 19 19.88C18.16 19.88 17.31 19.62 16.66 19.09L13.53 16.59C13.21 16.33 13.16 15.85 13.41 15.53C13.67 15.21 14.14 15.15 14.46 15.41L17.59 17.91C18.35 18.52 19.64 18.52 20.4 17.91L23.53 15.41C23.85 15.15 24.33 15.2 24.58 15.53C24.84 15.85 24.79 16.33 24.47 16.59Z" fill="#56616F"/>
</svg>
