<svg width="48" height="48" viewBox="0 0 48 48" fill="none" xmlns="http://www.w3.org/2000/svg">
<path d="M0 24C0 37.2548 10.7452 48 24 48C37.2548 48 48 37.2548 48 24C48 10.7452 37.2548 0 24 0C10.7452 0 0 10.7452 0 24Z" fill="#F00073"/>
<path d="M24 13.7998C27.3 13.7998 27.75 13.7998 29.1 13.7998C30.3 13.7998 30.9 14.0998 31.35 14.2498C31.95 14.5498 32.4 14.6998 32.85 15.1498C33.3 15.5998 33.6 16.0498 33.75 16.6498C33.9 17.0998 34.05 17.6998 34.2 18.8998C34.2 20.2498 34.2 20.5498 34.2 23.9998C34.2 27.4498 34.2 27.7498 34.2 29.0998C34.2 30.2998 33.9 30.8998 33.75 31.3498C33.4501 31.9498 33.3 32.3998 32.85 32.8498C32.4 33.2998 31.95 33.5998 31.35 33.7498C30.9 33.8998 30.3 34.0498 29.1 34.1998C27.75 34.1998 27.45 34.1998 24 34.1998C20.55 34.1998 20.25 34.1998 18.9 34.1998C17.7 34.1998 17.1 33.8998 16.65 33.7498C16.05 33.4498 15.6 33.2998 15.15 32.8498C14.7 32.3998 14.4 31.9498 14.25 31.3498C14.1 30.8998 13.95 30.2998 13.8 29.0998C13.8 27.7498 13.8 27.4498 13.8 23.9998C13.8 20.5498 13.8 20.2498 13.8 18.8998C13.8 17.6998 14.1 17.0998 14.25 16.6498C14.55 16.0498 14.7 15.5998 15.15 15.1498C15.6 14.6998 16.05 14.3998 16.65 14.2498C17.1 14.0998 17.7 13.9498 18.9 13.7998C20.25 13.7998 20.7 13.7998 24 13.7998ZM24 11.5498C20.55 11.5498 20.25 11.5498 18.9 11.5498C17.55 11.5498 16.65 11.8498 15.9 12.1498C15.15 12.4498 14.4 12.8998 13.65 13.6498C12.9 14.3998 12.6 14.9998 12.15 15.8998C11.85 16.6498 11.7 17.5498 11.55 18.8998C11.55 20.2498 11.55 20.6998 11.55 23.9998C11.55 27.4498 11.55 27.7498 11.55 29.0998C11.55 30.4498 11.85 31.3498 12.15 32.0998C12.45 32.8498 12.9 33.5998 13.65 34.3498C14.4 35.0998 15 35.3998 15.9 35.8498C16.65 36.1498 17.55 36.2998 18.9 36.4498C20.25 36.4498 20.7 36.4498 24 36.4498C27.3 36.4498 27.75 36.4498 29.1 36.4498C30.45 36.4498 31.35 36.1498 32.1 35.8498C32.85 35.5498 33.6 35.0998 34.35 34.3498C35.1 33.5998 35.4 32.9998 35.85 32.0998C36.1501 31.3498 36.3 30.4498 36.45 29.0998C36.45 27.7498 36.45 27.2998 36.45 23.9998C36.45 20.6998 36.45 20.2498 36.45 18.8998C36.45 17.5498 36.1501 16.6498 35.85 15.8998C35.55 15.1498 35.1 14.3998 34.35 13.6498C33.6 12.8998 33 12.5998 32.1 12.1498C31.35 11.8498 30.45 11.6998 29.1 11.5498C27.75 11.5498 27.45 11.5498 24 11.5498Z" fill="white"/>
<path d="M24 17.5498C20.4 17.5498 17.55 20.3998 17.55 23.9998C17.55 27.5998 20.4 30.4498 24 30.4498C27.6 30.4498 30.45 27.5998 30.45 23.9998C30.45 20.3998 27.6 17.5498 24 17.5498ZM24 28.1998C21.75 28.1998 19.8 26.3998 19.8 23.9998C19.8 21.7498 21.6 19.7998 24 19.7998C26.25 19.7998 28.2 21.5998 28.2 23.9998C28.2 26.2498 26.25 28.1998 24 28.1998Z" fill="white"/>
<path d="M30.6 18.8998C31.4285 18.8998 32.1 18.2282 32.1 17.3998C32.1 16.5714 31.4285 15.8998 30.6 15.8998C29.7716 15.8998 29.1 16.5714 29.1 17.3998C29.1 18.2282 29.7716 18.8998 30.6 18.8998Z" fill="white"/>
</svg>
