<svg width="100" height="100" viewBox="0 0 100 100" fill="none" xmlns="http://www.w3.org/2000/svg">
<rect width="100" height="100" rx="50" fill="#F72E2E"/>
<path d="M30.1993 45.186C31.6553 45.186 32.7706 45.4473 33.5453 45.97C34.32 46.4833 34.7073 47.286 34.7073 48.378C34.7073 49.0593 34.5486 49.6147 34.2313 50.044C33.9233 50.464 33.4753 50.7953 32.8873 51.038C33.0833 51.2807 33.2886 51.5607 33.5033 51.878C33.718 52.186 33.928 52.5127 34.1333 52.858C34.348 53.194 34.5533 53.5487 34.7493 53.922C34.9453 54.286 35.1273 54.6453 35.2953 55H32.8453C32.668 54.6827 32.486 54.3607 32.2993 54.034C32.122 53.7073 31.9353 53.39 31.7393 53.082C31.5526 52.774 31.366 52.4847 31.1793 52.214C30.9926 51.934 30.806 51.682 30.6193 51.458H29.5413V55H27.3573V45.438C27.8333 45.3447 28.3233 45.2793 28.8273 45.242C29.3406 45.2047 29.798 45.186 30.1993 45.186ZM30.3253 47.048C30.1666 47.048 30.022 47.0527 29.8913 47.062C29.77 47.0713 29.6533 47.0807 29.5413 47.09V49.722H30.1573C30.9786 49.722 31.5666 49.6193 31.9213 49.414C32.276 49.2087 32.4533 48.8587 32.4533 48.364C32.4533 47.888 32.2713 47.552 31.9073 47.356C31.5526 47.1507 31.0253 47.048 30.3253 47.048ZM35.8497 51.374C35.8497 50.7207 35.9477 50.1513 36.1437 49.666C36.3491 49.1713 36.6151 48.7607 36.9417 48.434C37.2684 48.1073 37.6417 47.86 38.0617 47.692C38.4911 47.524 38.9297 47.44 39.3777 47.44C40.4231 47.44 41.2491 47.762 41.8557 48.406C42.4624 49.0407 42.7657 49.9787 42.7657 51.22C42.7657 51.3413 42.7611 51.4767 42.7517 51.626C42.7424 51.766 42.7331 51.892 42.7237 52.004H37.9917C38.0384 52.4333 38.2391 52.774 38.5937 53.026C38.9484 53.278 39.4244 53.404 40.0217 53.404C40.4044 53.404 40.7777 53.3713 41.1417 53.306C41.5151 53.2313 41.8184 53.1427 42.0517 53.04L42.3317 54.734C42.2197 54.79 42.0704 54.846 41.8837 54.902C41.6971 54.958 41.4871 55.0047 41.2537 55.042C41.0297 55.0887 40.7871 55.126 40.5257 55.154C40.2644 55.182 40.0031 55.196 39.7417 55.196C39.0791 55.196 38.5004 55.098 38.0057 54.902C37.5204 54.706 37.1144 54.44 36.7877 54.104C36.4704 53.7587 36.2324 53.3527 36.0737 52.886C35.9244 52.4193 35.8497 51.9153 35.8497 51.374ZM40.7497 50.576C40.7404 50.3987 40.7077 50.226 40.6517 50.058C40.6051 49.89 40.5257 49.7407 40.4137 49.61C40.3111 49.4793 40.1757 49.372 40.0077 49.288C39.8491 49.204 39.6484 49.162 39.4057 49.162C39.1724 49.162 38.9717 49.204 38.8037 49.288C38.6357 49.3627 38.4957 49.4653 38.3837 49.596C38.2717 49.7267 38.1831 49.8807 38.1177 50.058C38.0617 50.226 38.0197 50.3987 37.9917 50.576H40.7497ZM44.0255 51.318C44.0255 50.786 44.1095 50.2867 44.2775 49.82C44.4548 49.344 44.7068 48.9333 45.0335 48.588C45.3602 48.2333 45.7568 47.9533 46.2235 47.748C46.6902 47.5427 47.2222 47.44 47.8195 47.44C48.2115 47.44 48.5708 47.4773 48.8975 47.552C49.2242 47.6173 49.5415 47.7153 49.8495 47.846L49.4155 49.512C49.2195 49.4373 49.0048 49.372 48.7715 49.316C48.5382 49.26 48.2768 49.232 47.9875 49.232C47.3715 49.232 46.9095 49.4233 46.6015 49.806C46.3028 50.1887 46.1535 50.6927 46.1535 51.318C46.1535 51.9807 46.2935 52.494 46.5735 52.858C46.8628 53.222 47.3622 53.404 48.0715 53.404C48.3235 53.404 48.5942 53.3807 48.8835 53.334C49.1728 53.2873 49.4388 53.2127 49.6815 53.11L49.9755 54.818C49.7328 54.9207 49.4295 55.0093 49.0655 55.084C48.7015 55.1587 48.3002 55.196 47.8615 55.196C47.1895 55.196 46.6108 55.098 46.1255 54.902C45.6402 54.6967 45.2388 54.4213 44.9215 54.076C44.6135 53.7307 44.3848 53.3247 44.2355 52.858C44.0955 52.382 44.0255 51.8687 44.0255 51.318ZM57.908 51.304C57.908 51.8827 57.824 52.4147 57.656 52.9C57.488 53.376 57.2454 53.7867 56.928 54.132C56.6107 54.468 56.228 54.7293 55.78 54.916C55.3414 55.1027 54.8467 55.196 54.296 55.196C53.7547 55.196 53.26 55.1027 52.812 54.916C52.3734 54.7293 51.9954 54.468 51.678 54.132C51.3607 53.7867 51.1134 53.376 50.936 52.9C50.7587 52.4147 50.67 51.8827 50.67 51.304C50.67 50.7253 50.7587 50.198 50.936 49.722C51.1227 49.246 51.3747 48.84 51.692 48.504C52.0187 48.168 52.4014 47.9067 52.84 47.72C53.288 47.5333 53.7734 47.44 54.296 47.44C54.828 47.44 55.3134 47.5333 55.752 47.72C56.2 47.9067 56.5827 48.168 56.9 48.504C57.2174 48.84 57.4647 49.246 57.642 49.722C57.8194 50.198 57.908 50.7253 57.908 51.304ZM55.78 51.304C55.78 50.66 55.6494 50.156 55.388 49.792C55.136 49.4187 54.772 49.232 54.296 49.232C53.82 49.232 53.4514 49.4187 53.19 49.792C52.9287 50.156 52.798 50.66 52.798 51.304C52.798 51.948 52.9287 52.4613 53.19 52.844C53.4514 53.2173 53.82 53.404 54.296 53.404C54.772 53.404 55.136 53.2173 55.388 52.844C55.6494 52.4613 55.78 51.948 55.78 51.304ZM63.9619 49.484C63.7753 49.4373 63.5559 49.3907 63.3039 49.344C63.0519 49.288 62.7813 49.26 62.4919 49.26C62.3613 49.26 62.2026 49.274 62.0159 49.302C61.8386 49.3207 61.7033 49.344 61.6099 49.372V55H59.5239V48.028C59.8973 47.8973 60.3359 47.776 60.8399 47.664C61.3533 47.5427 61.9226 47.482 62.5479 47.482C62.6599 47.482 62.7953 47.4913 62.9539 47.51C63.1126 47.5193 63.2713 47.538 63.4299 47.566C63.5886 47.5847 63.7473 47.6127 63.9059 47.65C64.0646 47.678 64.1999 47.7153 64.3119 47.762L63.9619 49.484ZM67.0715 51.262C67.0715 51.906 67.2161 52.424 67.5055 52.816C67.7948 53.208 68.2241 53.404 68.7935 53.404C68.9801 53.404 69.1528 53.3993 69.3115 53.39C69.4701 53.3713 69.6008 53.3527 69.7035 53.334V49.54C69.5728 49.456 69.4001 49.386 69.1855 49.33C68.9801 49.274 68.7701 49.246 68.5555 49.246C67.5661 49.246 67.0715 49.918 67.0715 51.262ZM71.7895 54.762C71.6028 54.818 71.3881 54.874 71.1455 54.93C70.9028 54.9767 70.6461 55.0187 70.3755 55.056C70.1141 55.0933 69.8435 55.1213 69.5635 55.14C69.2928 55.168 69.0315 55.182 68.7795 55.182C68.1728 55.182 67.6315 55.0933 67.1555 54.916C66.6795 54.7387 66.2781 54.4867 65.9515 54.16C65.6248 53.824 65.3728 53.4227 65.1955 52.956C65.0275 52.48 64.9435 51.948 64.9435 51.36C64.9435 50.7627 65.0181 50.226 65.1675 49.75C65.3168 49.2647 65.5315 48.854 65.8115 48.518C66.0915 48.182 66.4321 47.9253 66.8335 47.748C67.2441 47.5707 67.7108 47.482 68.2335 47.482C68.5228 47.482 68.7795 47.51 69.0035 47.566C69.2368 47.622 69.4701 47.7013 69.7035 47.804V44.472L71.7895 44.136V54.762Z" fill="black"/>
</svg>
