<svg width="71" height="69" viewBox="0 0 71 69" fill="none" xmlns="http://www.w3.org/2000/svg">
<path d="M63.7057 27.9208C63.0265 25.0416 63.3636 21.8806 63.1869 18.8038C63.1041 17.3019 62.9826 15.6468 62.2482 14.1746C61.8007 13.2005 60.9903 12.4397 59.9899 12.0546C58.9894 11.6694 57.8781 11.6904 56.8929 12.113C55.4926 12.6748 54.266 14.1833 53.5735 15.1832C52.7373 16.414 51.9653 17.6873 51.2607 18.9979C49.8987 21.4736 48.666 23.9039 47.374 26.1712C46.9573 26.8596 46.5477 27.5776 46.1137 28.2507C45.4835 19.2593 48.5138 2.63703 38.0119 0.103604C35.5816 -0.439748 33.7044 1.23831 32.6912 3.17068C31.6404 5.21057 30.7681 7.33762 30.0843 9.52801C28.3408 14.8849 26.9648 20.3544 25.9657 25.8985C24.9444 31.5542 24.2483 36.641 22.5391 47.5816C16.9218 45.1273 9.9072 43.1091 4.43282 48.3006C-4.98137 57.2286 1.61801 69.4014 14.6682 67.8832C25.5796 66.6142 29.3663 51.9243 29.3663 51.9243H29.3632C30.816 44.8658 31.892 34.3098 33.2121 26.4807C34.0966 21.2382 35.5224 16.9046 37.1887 11.8899C37.4078 11.2433 37.6391 10.5621 37.8847 9.89058C39.3728 15.3216 38.3775 27.2288 39.3565 31.3361C40.1026 36.6119 44.8753 39.3536 49.1613 35.3781C50.9916 33.5907 52.1232 31.471 53.2538 29.4155C54.8471 26.471 56.1136 23.4677 57.6338 20.6478C58.2941 25.4241 59.1148 32.1793 64.3144 31.403C67.4295 30.4609 69.0442 27.2156 70.2601 24.5407C69.2168 25.2612 64.58 28.9038 63.7042 27.9208" fill="#FF4199"/>
</svg>
