<svg width="38" height="38" viewBox="0 0 38 38" fill="none" xmlns="http://www.w3.org/2000/svg">
<path d="M0 19C0 8.50659 8.50659 0 19 0C29.4934 0 38 8.50659 38 19C38 29.4934 29.4934 38 19 38C8.50659 38 0 29.4934 0 19Z" fill="white"/>
<path fill-rule="evenodd" clip-rule="evenodd" d="M23.1696 7.6001C23.3686 8.95118 22.8186 10.2748 22.0932 11.2113C21.317 12.2157 19.9792 12.9926 18.683 12.9521C18.4464 11.6586 19.0523 10.3258 19.7894 9.42987C20.5981 8.44109 21.984 7.6825 23.1696 7.6001ZM27.0634 26.6172C27.7316 25.5931 27.9813 25.0765 28.5 23.9203C24.7271 22.4855 24.1226 17.1217 27.8565 15.0631C26.7176 13.6348 25.1172 12.8069 23.6065 12.8069C22.518 12.8069 21.7721 13.091 21.0941 13.3492C20.5291 13.5644 20.0111 13.7617 19.3812 13.7617C18.7004 13.7617 18.0976 13.5455 17.4664 13.3192C16.7727 13.0705 16.0448 12.8095 15.1416 12.8095C13.4463 12.8095 11.6418 13.8454 10.4977 15.6163C8.88948 18.1105 9.1638 22.7994 11.7718 26.7938C12.7039 28.2233 13.9494 29.8295 15.5784 29.8438C16.2544 29.8505 16.7042 29.6488 17.1909 29.4305C17.748 29.1806 18.3536 28.909 19.402 28.9034C20.4566 28.8971 21.0526 29.172 21.6023 29.4256C22.0766 29.6443 22.5164 29.8472 23.1865 29.8399C24.8169 29.8268 26.1312 28.0468 27.0634 26.6172Z" fill="#0B0B0A"/>
</svg>
