<svg width="38" height="38" viewBox="0 0 38 38" fill="none" xmlns="http://www.w3.org/2000/svg">
<path d="M0 19C0 8.50659 8.50659 0 19 0C29.4934 0 38 8.50659 38 19C38 29.4934 29.4934 38 19 38C8.50659 38 0 29.4934 0 19Z" fill="white"/>
<path d="M18.9999 13.9502C20.5459 13.9502 21.5888 14.618 22.1834 15.176L24.5071 12.9073C23.08 11.5808 21.2229 10.7666 18.9999 10.7666C15.7797 10.7666 12.9987 12.6145 11.6448 15.3041L14.3069 17.3716C14.9747 15.3864 16.8226 13.9502 18.9999 13.9502Z" fill="#EA4335"/>
<path d="M26.904 19.1828C26.904 18.5058 26.8491 18.0118 26.7302 17.4995H19V20.555H23.5375C23.446 21.3143 22.952 22.4578 21.8542 23.2263L24.4523 25.2388C26.0075 23.8026 26.904 21.6894 26.904 19.1828Z" fill="#4285F4"/>
<path d="M14.3161 20.6284C14.1423 20.1161 14.0416 19.5672 14.0416 19.0001C14.0416 18.4329 14.1423 17.884 14.3069 17.3717L11.6448 15.3042C11.0868 16.4203 10.7666 17.6736 10.7666 19.0001C10.7666 20.3265 11.0868 21.5798 11.6448 22.6959L14.3161 20.6284Z" fill="#FBBC05"/>
<path d="M19 27.2334C21.223 27.2334 23.0892 26.5015 24.4523 25.2391L21.8542 23.2265C21.159 23.7113 20.2259 24.0498 19 24.0498C16.8228 24.0498 14.9748 22.6136 14.3162 20.6284L11.6541 22.6959C13.008 25.3855 15.7799 27.2334 19 27.2334Z" fill="#34A853"/>
</svg>
