<svg width="26" height="20" viewBox="0 0 26 20" fill="none" xmlns="http://www.w3.org/2000/svg">
<path d="M23.8333 10.2917V18.4167C23.8333 18.704 23.7192 18.9795 23.516 19.1827C23.3129 19.3859 23.0373 19.5 22.75 19.5H21.6667C21.3794 19.5 21.1038 19.3859 20.9006 19.1827C20.6975 18.9795 20.5833 18.704 20.5833 18.4167V17.3333H5.41667V18.4167C5.41667 18.704 5.30253 18.9795 5.09937 19.1827C4.8962 19.3859 4.62065 19.5 4.33333 19.5H3.25C2.96268 19.5 2.68713 19.3859 2.48397 19.1827C2.2808 18.9795 2.16667 18.704 2.16667 18.4167V10.2917L0.820083 9.95583C0.585816 9.89715 0.377876 9.76187 0.229293 9.57148C0.0807107 9.38109 6.3488e-06 9.14651 0 8.905L0 8.125C0 7.98134 0.0570683 7.84357 0.158651 7.74198C0.260233 7.6404 0.398008 7.58333 0.541667 7.58333H2.57292L4.88908 1.40617C5.04393 0.993084 5.32118 0.637111 5.68377 0.385832C6.04636 0.134554 6.47702 -5.49233e-05 6.91817 1.68109e-08H19.0818C19.523 -5.49233e-05 19.9536 0.134554 20.3162 0.385832C20.6788 0.637111 20.9561 0.993084 21.1109 1.40617L23.4271 7.58333H25.4583C25.602 7.58333 25.7398 7.6404 25.8414 7.74198C25.9429 7.84357 26 7.98134 26 8.125V8.905C26 9.14651 25.9193 9.38109 25.7707 9.57148C25.6221 9.76187 25.4142 9.89715 25.1799 9.95583L23.8333 10.2917ZM4.33333 11.9167V14.0833C4.33333 14.3707 4.44747 14.6462 4.65063 14.8494C4.8538 15.0525 5.12935 15.1667 5.41667 15.1667H8.93208C9.02562 15.1665 9.11753 15.1421 9.19885 15.0959C9.28017 15.0497 9.34814 14.9832 9.39614 14.9029C9.44414 14.8227 9.47052 14.7313 9.47273 14.6378C9.47494 14.5443 9.4529 14.4518 9.40875 14.3693C8.53667 12.7335 6.8445 11.9167 4.33333 11.9167ZM21.6667 11.9167C19.1566 11.9167 17.4644 12.7346 16.5902 14.3693C16.546 14.4519 16.5239 14.5445 16.5262 14.6381C16.5285 14.7317 16.5549 14.8231 16.6031 14.9034C16.6512 14.9837 16.7193 15.0502 16.8008 15.0963C16.8822 15.1425 16.9743 15.1667 17.0679 15.1667H20.5833C20.8707 15.1667 21.1462 15.0525 21.3494 14.8494C21.5525 14.6462 21.6667 14.3707 21.6667 14.0833V11.9167ZM6.5 2.16667L4.80892 7.241C4.7547 7.40377 4.73992 7.5771 4.76579 7.7467C4.79167 7.9163 4.85745 8.07734 4.95773 8.21654C5.05801 8.35575 5.18992 8.46915 5.34259 8.5474C5.49527 8.62566 5.66435 8.66654 5.83592 8.66667H20.1641C20.3356 8.66654 20.5047 8.62566 20.6574 8.5474C20.8101 8.46915 20.942 8.35575 21.0423 8.21654C21.1426 8.07734 21.2083 7.9163 21.2342 7.7467C21.2601 7.5771 21.2453 7.40377 21.1911 7.241L19.5 2.16667H6.5Z" fill="white"/>
</svg>
