<svg width="22" height="22" viewBox="0 0 22 22" fill="none" xmlns="http://www.w3.org/2000/svg">
<path d="M15.0516 19.5252L15.0516 14.4102C15.0516 14.0527 15.3358 13.7686 15.6933 13.7686C16.0508 13.7686 16.335 14.0527 16.335 14.4102L16.335 19.5252C16.335 19.8827 16.0508 20.1669 15.6933 20.1669C15.3358 20.1669 15.0516 19.8827 15.0516 19.5252Z" fill="white"/>
<path d="M15.0516 5.88468L15.0516 2.47468C15.0516 2.11718 15.3358 1.83301 15.6933 1.83301C16.0508 1.83301 16.335 2.11718 16.335 2.47468L16.335 5.88468C16.335 6.24218 16.0508 6.52634 15.6933 6.52634C15.3358 6.52634 15.0516 6.23301 15.0516 5.88468Z" fill="white"/>
<path d="M12.0723 9.29466C12.0723 11.2944 13.6934 12.9155 15.6931 12.9155C17.6929 12.9155 19.314 11.2944 19.314 9.29466C19.314 7.29493 17.6929 5.67383 15.6931 5.67383C13.6934 5.67383 12.0723 7.29493 12.0723 9.29466Z" fill="white"/>
<path d="M5.67395 19.5253L5.67395 16.1153C5.67395 15.7578 5.95811 15.4736 6.31561 15.4736C6.67311 15.4736 6.95728 15.7578 6.95728 16.1153L6.95728 19.5253C6.95728 19.8828 6.67311 20.167 6.31561 20.167C5.95811 20.167 5.67395 19.8828 5.67395 19.5253Z" fill="white"/>
<path d="M5.67394 7.58968L5.67395 2.47468C5.67395 2.11718 5.95811 1.83301 6.31561 1.83301C6.67311 1.83301 6.95728 2.11718 6.95728 2.47468L6.95728 7.58968C6.95728 7.94718 6.67311 8.23134 6.31561 8.23134C5.95811 8.23134 5.67394 7.93801 5.67394 7.58968Z" fill="white"/>
<path d="M2.68583 12.7048C2.68583 14.7045 4.30693 16.3257 6.30666 16.3257C8.30639 16.3257 9.92749 14.7045 9.92749 12.7048C9.92749 10.7051 8.30639 9.08399 6.30666 9.08399C4.30693 9.08399 2.68583 10.7051 2.68583 12.7048Z" fill="white"/>
</svg>
