<svg width="375" height="44" viewBox="0 0 375 44" fill="none" xmlns="http://www.w3.org/2000/svg">
<path opacity="0.35" d="M338.667 17.8335H355.333C356.53 17.8335 357.5 18.8039 357.5 20.0005V26.0005C357.5 27.197 356.53 28.1665 355.333 28.1665H338.667C337.47 28.1665 336.5 27.197 336.5 26.0005V20.0005L336.511 19.7788C336.622 18.6861 337.545 17.8335 338.667 17.8335Z" stroke="white"/>
<path opacity="0.4" d="M359 21.0002V25.0002C359.805 24.6615 360.328 23.8734 360.328 23.0002C360.328 22.1271 359.805 21.339 359 21.0002Z" fill="white"/>
<path d="M338 20.4335C338 19.826 338.492 19.3335 339.1 19.3335H354.9C355.508 19.3335 356 19.826 356 20.4335V25.5668C356 26.1743 355.508 26.6668 354.9 26.6668H339.1C338.492 26.6668 338 26.1743 338 25.5668V20.4335Z" fill="white"/>
<path fill-rule="evenodd" clip-rule="evenodd" d="M323.33 19.6081C325.546 19.6082 327.678 20.4597 329.283 21.9865C329.404 22.1043 329.598 22.1029 329.717 21.9831L330.873 20.8165C330.933 20.7557 330.967 20.6735 330.966 20.5879C330.966 20.5023 330.931 20.4205 330.87 20.3605C326.655 16.3209 320.005 16.3209 315.79 20.3605C315.729 20.4204 315.694 20.5023 315.694 20.5878C315.693 20.6734 315.727 20.7557 315.787 20.8165L316.943 21.9831C317.062 22.103 317.256 22.1045 317.377 21.9865C318.983 20.4596 321.114 19.6081 323.33 19.6081ZM323.33 23.4038C324.548 23.4037 325.722 23.8563 326.624 24.6735C326.747 24.7895 326.939 24.7869 327.058 24.6678L328.212 23.5011C328.273 23.4399 328.307 23.3569 328.306 23.2707C328.305 23.1844 328.27 23.1021 328.208 23.0421C325.46 20.4858 321.204 20.4858 318.455 23.0421C318.393 23.1021 318.358 23.1844 318.357 23.2707C318.356 23.357 318.39 23.44 318.451 23.5011L319.605 24.6678C319.724 24.7869 319.917 24.7895 320.039 24.6735C320.941 23.8568 322.114 23.4043 323.33 23.4038ZM325.643 25.9576C325.645 26.0441 325.611 26.1275 325.549 26.1881L323.552 28.2038C323.494 28.263 323.414 28.2964 323.33 28.2964C323.247 28.2964 323.167 28.263 323.109 28.2038L321.111 26.1881C321.049 26.1275 321.015 26.0441 321.017 25.9576C321.019 25.871 321.057 25.7891 321.121 25.7311C322.396 24.6523 324.265 24.6523 325.54 25.7311C325.604 25.7892 325.642 25.8711 325.643 25.9576Z" fill="white"/>
<path fill-rule="evenodd" clip-rule="evenodd" d="M309.667 17.6667H308.667C308.114 17.6667 307.667 18.1145 307.667 18.6667V27.3334C307.667 27.8857 308.114 28.3334 308.667 28.3334H309.667C310.219 28.3334 310.667 27.8857 310.667 27.3334V18.6667C310.667 18.1145 310.219 17.6667 309.667 17.6667ZM304 20.0001H305C305.552 20.0001 306 20.4478 306 21.0001V27.3334C306 27.8857 305.552 28.3334 305 28.3334H304C303.448 28.3334 303 27.8857 303 27.3334V21.0001C303 20.4478 303.448 20.0001 304 20.0001ZM300.333 22.3334H299.333C298.781 22.3334 298.333 22.7811 298.333 23.3334V27.3334C298.333 27.8857 298.781 28.3334 299.333 28.3334H300.333C300.886 28.3334 301.333 27.8857 301.333 27.3334V23.3334C301.333 22.7811 300.886 22.3334 300.333 22.3334ZM295.667 24.3334H294.667C294.114 24.3334 293.667 24.7811 293.667 25.3334V27.3334C293.667 27.8857 294.114 28.3334 294.667 28.3334H295.667C296.219 28.3334 296.667 27.8857 296.667 27.3334V25.3334C296.667 24.7811 296.219 24.3334 295.667 24.3334Z" fill="white"/>
<path d="M37.5146 17.1675C35.2222 17.1675 33.5889 18.7349 33.5889 20.8809V20.8955C33.5889 22.9023 35.0098 24.3818 37.0386 24.3818C38.4888 24.3818 39.4116 23.6421 39.7998 22.8071H39.9463C39.9463 22.8877 39.939 22.9683 39.939 23.0488C39.8584 25.0703 39.1479 26.7109 37.4707 26.7109C36.5405 26.7109 35.8887 26.2275 35.6104 25.4878L35.5884 25.4146H33.728L33.7427 25.4951C34.0796 27.1138 35.5298 28.2637 37.4707 28.2637C40.1294 28.2637 41.7334 26.1543 41.7334 22.5947V22.5801C41.7334 18.7715 39.7705 17.1675 37.5146 17.1675ZM37.5073 22.9316C36.3062 22.9316 35.4346 22.0527 35.4346 20.8296V20.8149C35.4346 19.6357 36.3647 18.7056 37.5293 18.7056C38.7012 18.7056 39.6167 19.6504 39.6167 20.8589V20.8735C39.6167 22.0674 38.7012 22.9316 37.5073 22.9316ZM44.5586 21.1519C45.2324 21.1519 45.7231 20.6392 45.7231 19.9946C45.7231 19.3428 45.2324 18.8374 44.5586 18.8374C43.8921 18.8374 43.394 19.3428 43.394 19.9946C43.394 20.6392 43.8921 21.1519 44.5586 21.1519ZM44.5586 26.5864C45.2324 26.5864 45.7231 26.0811 45.7231 25.4292C45.7231 24.7773 45.2324 24.272 44.5586 24.272C43.8921 24.272 43.394 24.7773 43.394 25.4292C43.394 26.0811 43.8921 26.5864 44.5586 26.5864ZM52.5107 28H54.3198V25.9712H55.7407V24.4111H54.3198V17.4312H51.6465C50.2109 19.6138 48.7095 22.0454 47.3398 24.4258V25.9712H52.5107V28ZM49.0977 24.4551V24.3452C50.123 22.5508 51.3462 20.5952 52.4302 18.9399H52.54V24.4551H49.0977ZM59.6206 28H61.5103V17.4312H59.6279L56.8667 19.3721V21.1519L59.4961 19.2915H59.6206V28Z" fill="white"/>
</svg>
