<svg width="14" height="14" viewBox="0 0 14 14" fill="none" xmlns="http://www.w3.org/2000/svg">
<path d="M9.44413 1.1665H4.55579C2.43246 1.1665 1.16663 2.43234 1.16663 4.55567V9.43817C1.16663 11.5673 2.43246 12.8332 4.55579 12.8332H9.43829C11.5616 12.8332 12.8275 11.5673 12.8275 9.444V4.55567C12.8333 2.43234 11.5675 1.1665 9.44413 1.1665ZM6.38746 10.214C6.21829 10.3832 5.89746 10.5465 5.66413 10.5815L4.22913 10.7857C4.17663 10.7915 4.12413 10.7973 4.07163 10.7973C3.83246 10.7973 3.61079 10.7157 3.45329 10.5582C3.26079 10.3657 3.17913 10.0857 3.22579 9.7765L3.42996 8.3415C3.46496 8.10234 3.62246 7.78734 3.79746 7.61817L6.39913 5.0165C6.44579 5.139 6.49246 5.2615 6.55663 5.4015C6.61496 5.524 6.67913 5.65234 6.74913 5.769C6.80746 5.86817 6.87163 5.9615 6.92413 6.0315C6.98829 6.13067 7.06413 6.224 7.11079 6.2765C7.13996 6.31734 7.16329 6.3465 7.17496 6.35817C7.32079 6.53317 7.48996 6.6965 7.63579 6.819C7.67663 6.85984 7.69996 6.88317 7.71163 6.889C7.79913 6.959 7.88663 7.029 7.96246 7.0815C8.05579 7.1515 8.14913 7.21567 8.24829 7.26817C8.36496 7.33817 8.49329 7.40234 8.62163 7.4665C8.75579 7.52484 8.87829 7.57734 9.00079 7.61817L6.38746 10.214ZM10.1325 6.469L9.59579 7.0115C9.56079 7.0465 9.51413 7.064 9.46746 7.064C9.44996 7.064 9.42663 7.064 9.41496 7.05817C8.23079 6.71984 7.28579 5.77484 6.94746 4.59067C6.92996 4.5265 6.94746 4.4565 6.99413 4.41567L7.53663 3.87317C8.42329 2.9865 9.26912 3.004 10.1383 3.87317C10.5816 4.3165 10.7975 4.74234 10.7975 5.18567C10.7916 5.60567 10.5758 6.02567 10.1325 6.469Z" fill="white"/>
</svg>
