<svg width="42" height="42" viewBox="0 0 42 42" fill="none" xmlns="http://www.w3.org/2000/svg">
<path d="M19.25 30.6775V11.3225C19.25 9.485 18.4676 8.75 16.4912 8.75H11.5088C9.53235 8.75 8.75 9.485 8.75 11.3225V30.6775C8.75 32.515 9.53235 33.25 11.5088 33.25H16.4912C18.4676 33.25 19.25 32.515 19.25 30.6775Z" fill="white"/>
<path d="M33.25 30.6775V11.3225C33.25 9.485 32.4676 8.75 30.4912 8.75H25.5088C23.5461 8.75 22.75 9.485 22.75 11.3225V30.6775C22.75 32.515 23.5324 33.25 25.5088 33.25H30.4912C32.4676 33.25 33.25 32.515 33.25 30.6775Z" fill="white"/>
</svg>
