<svg width="28" height="28" viewBox="0 0 28 28" fill="none" xmlns="http://www.w3.org/2000/svg">
<path d="M20.8983 4.41C19.5917 3.68667 17.9233 3.87334 16.22 4.935L12.8133 7.07C12.58 7.21 12.3117 7.29167 12.0433 7.29167H10.9583H10.375C7.55167 7.29167 6 8.84334 6 11.6667V16.3333C6 19.1567 7.55167 20.7083 10.375 20.7083H10.9583H12.0433C12.3117 20.7083 12.58 20.79 12.8133 20.93L16.22 23.065C17.2467 23.7067 18.25 24.0217 19.1833 24.0217C19.79 24.0217 20.3733 23.8817 20.8983 23.59C22.1933 22.8667 22.9167 21.3617 22.9167 19.355V8.645C22.9167 6.63834 22.1933 5.13334 20.8983 4.41Z" fill="white"/>
</svg>
