<svg width="24" height="24" viewBox="0 0 24 24" fill="none" xmlns="http://www.w3.org/2000/svg">
<path d="M12 2C17.5163 2 22 6.48372 22 12C22 17.5163 17.5163 22 12 22C6.48372 22 2 17.5163 2 12C2 6.48372 6.48372 2 12 2ZM12 20.6047C16.7442 20.6047 20.6047 16.7442 20.6047 12C20.6047 7.25582 16.7442 3.39535 12 3.39535C7.25582 3.39535 3.39535 7.25581 3.39535 12C3.39535 16.7442 7.25581 20.6047 12 20.6047Z" fill="white"/>
<path d="M8.47009 9.99008C8.66009 9.99008 8.85009 10.0601 9.00009 10.2101L12.0001 13.2101L15.0001 10.2101C15.2901 9.92008 15.7701 9.92008 16.0601 10.2101C16.3501 10.5001 16.3501 10.9801 16.0601 11.2701L12.5301 14.8001C12.2401 15.0901 11.7601 15.0901 11.4701 14.8001L7.94009 11.2701C7.65009 10.9801 7.65009 10.5001 7.94009 10.2101C8.09009 10.0601 8.28009 9.99008 8.47009 9.99008Z" fill="white"/>
</svg>
