<svg width="102" height="102" viewBox="0 0 102 102" fill="none" xmlns="http://www.w3.org/2000/svg">
<g clip-path="url(#clip0_420_3409)">
<path d="M51.0001 55.2504L76.5001 93.5004H25.5001L51.0001 55.2504ZM46.4951 44.8804C45.8687 44.2967 45.3664 43.5929 45.0179 42.8109C44.6695 42.029 44.4822 41.1848 44.467 40.3288C44.4519 39.4728 44.6094 38.6226 44.93 37.8288C45.2507 37.035 45.7279 36.3139 46.3333 35.7085C46.9386 35.1032 47.6597 34.626 48.4535 34.3053C49.2473 33.9847 50.0975 33.8272 50.9535 33.8423C51.8095 33.8574 52.6537 34.0448 53.4356 34.3932C54.2176 34.7417 54.9215 35.244 55.5051 35.8704C56.6312 37.0789 57.2442 38.6773 57.2151 40.3288C57.1859 41.9804 56.5169 43.5561 55.3489 44.7242C54.1809 45.8922 52.6051 46.5612 50.9535 46.5904C49.302 46.6195 47.7036 46.0065 46.4951 44.8804ZM22.4443 11.8281L28.4581 17.8419C22.4811 23.8195 19.1234 31.9265 19.1234 40.3796C19.1234 48.8328 22.4811 56.9398 28.4581 62.9174L22.4443 68.9311C18.6945 65.1819 15.72 60.7307 13.6906 55.8318C11.6612 50.9329 10.6167 45.6822 10.6167 40.3796C10.6167 35.077 11.6612 29.8263 13.6906 24.9274C15.72 20.0285 18.6945 15.5774 22.4443 11.8281ZM79.5473 11.8281C83.2971 15.5774 86.2716 20.0285 88.301 24.9274C90.3304 29.8263 91.375 35.077 91.375 40.3796C91.375 45.6822 90.3304 50.9329 88.301 55.8318C86.2716 60.7307 83.2971 65.1819 79.5473 68.9311L73.5336 62.9174C79.5105 56.9398 82.8683 48.8328 82.8683 40.3796C82.8683 31.9265 79.5105 23.8195 73.5336 17.8419L79.5473 11.8281ZM34.4676 23.8471L40.4771 29.8566C39.0956 31.2379 37.9998 32.8778 37.2522 34.6826C36.5046 36.4874 36.1198 38.4218 36.1198 40.3754C36.1198 42.3289 36.5046 44.2633 37.2522 46.0681C37.9998 47.873 39.0956 49.5128 40.4771 50.8941L34.4676 56.9036C30.0841 52.52 27.6216 46.5746 27.6216 40.3754C27.6216 34.1761 30.0841 28.2308 34.4676 23.8471ZM67.5241 23.8471C71.9075 28.2308 74.3701 34.1761 74.3701 40.3754C74.3701 46.5746 71.9075 52.52 67.5241 56.9036L61.5146 50.8941C62.896 49.5128 63.9918 47.873 64.7395 46.0681C65.4871 44.2633 65.8719 42.3289 65.8719 40.3754C65.8719 38.4218 65.4871 36.4874 64.7395 34.6826C63.9918 32.8778 62.896 31.2379 61.5146 29.8566L67.5241 23.8471Z" fill="#CBCBCB"/>
</g>
<defs>
<clipPath id="clip0_420_3409">
<rect width="102" height="102" fill="white"/>
</clipPath>
</defs>
</svg>
