<svg width="46" height="46" viewBox="0 0 46 46" fill="none" xmlns="http://www.w3.org/2000/svg">
<rect x="3" y="3" width="40" height="40" rx="20" fill="#454545"/>
<path opacity="0.4" d="M23 42.1859C33.5855 42.1859 42.1667 33.6047 42.1667 23.0192C42.1667 12.4337 33.5855 3.85254 23 3.85254C12.4146 3.85254 3.83337 12.4337 3.83337 23.0192C3.83337 33.6047 12.4146 42.1859 23 42.1859Z" fill="#292D32"/>
<path d="M23 13.3018C19.0325 13.3018 15.8125 16.5218 15.8125 20.4893C15.8125 24.3801 18.86 27.5426 22.9042 27.6576C22.9617 27.6576 23.0383 27.6576 23.0767 27.6576C23.115 27.6576 23.1725 27.6576 23.2108 27.6576C23.23 27.6576 23.2492 27.6576 23.2492 27.6576C27.1208 27.5234 30.1683 24.3801 30.1875 20.4893C30.1875 16.5218 26.9675 13.3018 23 13.3018Z" fill="#7C7C7C"/>
<path d="M35.995 37.1066C32.5833 40.25 28.0217 42.1858 23 42.1858C17.9783 42.1858 13.4167 40.25 10.005 37.1066C10.465 35.3625 11.7108 33.7716 13.5317 32.545C18.7642 29.0566 27.2742 29.0566 32.4683 32.545C34.3083 33.7716 35.535 35.3625 35.995 37.1066Z" fill="#7C7C7C"/>
</svg>
