<svg width="16" height="16" viewBox="0 0 16 16" fill="none" xmlns="http://www.w3.org/2000/svg">
<path d="M6.93957 13.0406C5.88087 14.1384 4.15673 14.2397 2.97682 13.2733C2.27413 12.6649 1.91519 11.7501 2.01664 10.8262C2.1045 10.145 2.42288 9.51438 2.91881 9.0392L4.83651 7.12019C5.22696 6.72961 5.22696 6.09649 4.83651 5.70592C4.44594 5.31547 3.81282 5.31547 3.42225 5.70592L1.54524 7.58362C0.689644 8.40868 0.150075 9.50735 0.0202691 10.6888C-0.222183 13.3499 1.73847 15.7037 4.39953 15.9461C5.82858 16.0763 7.24171 15.5655 8.25712 14.5515L10.2628 12.5465C10.6533 12.1559 10.6533 11.5228 10.2628 11.1322C9.87227 10.7418 9.23915 10.7418 8.84858 11.1322L6.93957 13.0406Z" fill="white"/>
<path d="M14.1075 0.961046C12.1163 -0.501916 9.35124 -0.27256 7.62829 1.49849L5.74059 3.38684C5.35014 3.77742 5.35014 4.41053 5.74059 4.80111C6.13116 5.19156 6.76428 5.19156 7.15485 4.80111L9.07256 2.88541C10.1081 1.81436 11.7836 1.69371 12.9619 2.60535C14.1748 3.59985 14.3518 5.38922 13.3573 6.60204C13.2991 6.67302 13.2375 6.74113 13.1726 6.80614L11.1669 8.81186C10.7765 9.20243 10.7765 9.83555 11.1669 10.2261C11.5575 10.6166 12.1906 10.6166 12.5812 10.2261L14.5869 8.2204C16.4752 6.32611 16.4703 3.25976 14.576 1.3715C14.4288 1.22478 14.2723 1.08769 14.1075 0.961046Z" fill="white"/>
<path d="M5.74071 8.81365L8.84832 5.70604C9.23893 5.31543 9.8722 5.31543 10.2628 5.70604C10.6534 6.09664 10.6534 6.72992 10.2628 7.12052L7.15519 10.2281C6.76459 10.6187 6.13131 10.6187 5.74071 10.2281C5.3501 9.83753 5.3501 9.20425 5.74071 8.81365Z" fill="white"/>
</svg>
