<svg width="40" height="39" viewBox="0 0 40 39" fill="none" xmlns="http://www.w3.org/2000/svg">
<g filter="url(#filter0_diii_2313_11092)">
<path d="M32.3823 13.6097C32.075 12.3041 32.2275 10.8708 32.1476 9.47558C32.1101 8.79455 32.0551 8.04405 31.7229 7.37646C31.5204 6.93473 31.1537 6.58977 30.7011 6.41513C30.2484 6.2405 29.7456 6.25001 29.2998 6.44163C28.6663 6.69635 28.1113 7.38039 27.798 7.83379C27.4197 8.39192 27.0704 8.96928 26.7516 9.56357C26.1353 10.6862 25.5776 11.7882 24.993 12.8163C24.8045 13.1285 24.6192 13.4541 24.4228 13.7593C24.1377 9.68213 25.5087 2.14474 20.7571 0.995954C19.6575 0.74957 18.8082 1.51049 18.3498 2.38672C17.8743 3.31171 17.4797 4.27623 17.1703 5.26946C16.3814 7.69853 15.7588 10.1787 15.3068 12.6927C14.8447 15.2573 14.5298 17.5639 13.7564 22.5249C11.2149 21.412 8.04112 20.4968 5.56423 22.8509C1.30477 26.8993 4.29067 32.4191 10.1952 31.7307C15.1321 31.1553 16.8454 24.4941 16.8454 24.4941H16.844C17.5014 21.2934 17.9882 16.5068 18.5855 12.9567C18.9856 10.5794 19.6307 8.61439 20.3847 6.34044C20.4838 6.04728 20.5884 5.73838 20.6996 5.43387C21.3729 7.89655 20.9226 13.2959 21.3655 15.1584C21.703 17.5507 23.8625 18.7939 25.8017 16.9912C26.6298 16.1807 27.1418 15.2195 27.6534 14.2875C28.3742 12.9523 28.9473 11.5904 29.6351 10.3118C29.9338 12.4776 30.3052 15.5407 32.6577 15.1887C34.0672 14.7615 34.7977 13.2899 35.3479 12.077C34.8758 12.4037 32.7779 14.0554 32.3816 13.6097" fill="#F8E9F0"/>
</g>
<defs>
<filter id="filter0_diii_2313_11092" x="9.07332e-05" y="4.05312e-05" width="39.3805" height="38.4318" filterUnits="userSpaceOnUse" color-interpolation-filters="sRGB">
<feFlood flood-opacity="0" result="BackgroundImageFix"/>
<feColorMatrix in="SourceAlpha" type="matrix" values="0 0 0 0 0 0 0 0 0 0 0 0 0 0 0 0 0 0 127 0" result="hardAlpha"/>
<feOffset dx="0.237234" dy="2.8468"/>
<feGaussianBlur stdDeviation="1.89787"/>
<feComposite in2="hardAlpha" operator="out"/>
<feColorMatrix type="matrix" values="0 0 0 0 0.854167 0 0 0 0 0.156597 0 0 0 0 0.479682 0 0 0 1 0"/>
<feBlend mode="normal" in2="BackgroundImageFix" result="effect1_dropShadow_2313_11092"/>
<feBlend mode="normal" in="SourceGraphic" in2="effect1_dropShadow_2313_11092" result="shape"/>
<feColorMatrix in="SourceAlpha" type="matrix" values="0 0 0 0 0 0 0 0 0 0 0 0 0 0 0 0 0 0 127 0" result="hardAlpha"/>
<feOffset dx="-0.237234" dy="-0.711701"/>
<feGaussianBlur stdDeviation="0.711701"/>
<feComposite in2="hardAlpha" operator="arithmetic" k2="-1" k3="1"/>
<feColorMatrix type="matrix" values="0 0 0 0 1 0 0 0 0 0.254902 0 0 0 0 0.6 0 0 0 0.59 0"/>
<feBlend mode="normal" in2="shape" result="effect2_innerShadow_2313_11092"/>
<feColorMatrix in="SourceAlpha" type="matrix" values="0 0 0 0 0 0 0 0 0 0 0 0 0 0 0 0 0 0 127 0" result="hardAlpha"/>
<feOffset dx="0.237234" dy="1.4234"/>
<feGaussianBlur stdDeviation="0.593084"/>
<feComposite in2="hardAlpha" operator="arithmetic" k2="-1" k3="1"/>
<feColorMatrix type="matrix" values="0 0 0 0 1 0 0 0 0 0.979167 0 0 0 0 0.979167 0 0 0 0.51 0"/>
<feBlend mode="normal" in2="effect2_innerShadow_2313_11092" result="effect3_innerShadow_2313_11092"/>
<feColorMatrix in="SourceAlpha" type="matrix" values="0 0 0 0 0 0 0 0 0 0 0 0 0 0 0 0 0 0 127 0" result="hardAlpha"/>
<feOffset dx="-0.474467" dy="0.237234"/>
<feGaussianBlur stdDeviation="0.35585"/>
<feComposite in2="hardAlpha" operator="arithmetic" k2="-1" k3="1"/>
<feColorMatrix type="matrix" values="0 0 0 0 1 0 0 0 0 1 0 0 0 0 1 0 0 0 0.43 0"/>
<feBlend mode="normal" in2="effect3_innerShadow_2313_11092" result="effect4_innerShadow_2313_11092"/>
</filter>
</defs>
</svg>
