<svg width="776" height="757" viewBox="0 0 776 757" fill="none" xmlns="http://www.w3.org/2000/svg">
<g filter="url(#filter0_diii_1767_5893)">
<path d="M637.681 268.005C631.629 242.296 634.632 214.069 633.058 186.595C632.321 173.184 631.238 158.405 624.695 145.259C620.708 136.56 613.487 129.767 604.573 126.328C595.66 122.889 585.758 123.076 576.98 126.85C564.504 131.866 553.575 145.336 547.405 154.265C539.955 165.255 533.076 176.625 526.798 188.328C514.663 210.435 503.68 232.136 492.168 252.383C488.456 258.53 484.807 264.941 480.939 270.951C475.324 190.663 502.324 42.2341 408.754 19.6118C387.101 14.76 370.375 29.7442 361.348 46.9993C351.985 65.2145 344.213 84.208 338.12 103.767C322.586 151.601 310.326 200.441 301.425 249.948C292.325 300.45 286.123 345.872 270.894 443.566C220.845 421.651 158.346 403.629 109.571 449.987C25.6922 529.709 84.4914 638.407 200.766 624.85C297.985 613.518 331.723 482.345 331.723 482.345H331.696C344.64 419.316 354.227 325.056 365.989 255.146C373.869 208.333 386.573 169.637 401.419 124.857C403.371 119.084 405.432 113.001 407.621 107.005C420.879 155.5 412.012 261.826 420.734 298.503C427.381 345.612 469.905 370.095 508.093 334.595C524.4 318.635 534.483 299.707 544.557 281.352C558.753 255.059 570.036 228.242 583.582 203.061C589.465 245.711 596.777 306.031 643.104 299.1C670.859 290.687 685.246 261.708 696.08 237.823C686.784 244.257 645.47 276.783 637.667 268.005" fill="#F8E9F0"/>
</g>
<defs>
<filter id="filter0_diii_1767_5893" x="6.00815e-05" y="7.62939e-06" width="775.498" height="756.811" filterUnits="userSpaceOnUse" color-interpolation-filters="sRGB">
<feFlood flood-opacity="0" result="BackgroundImageFix"/>
<feColorMatrix in="SourceAlpha" type="matrix" values="0 0 0 0 0 0 0 0 0 0 0 0 0 0 0 0 0 0 127 0" result="hardAlpha"/>
<feOffset dx="4.67168" dy="56.0601"/>
<feGaussianBlur stdDeviation="37.3734"/>
<feComposite in2="hardAlpha" operator="out"/>
<feColorMatrix type="matrix" values="0 0 0 0 0.854167 0 0 0 0 0.156597 0 0 0 0 0.479682 0 0 0 1 0"/>
<feBlend mode="normal" in2="BackgroundImageFix" result="effect1_dropShadow_1767_5893"/>
<feBlend mode="normal" in="SourceGraphic" in2="effect1_dropShadow_1767_5893" result="shape"/>
<feColorMatrix in="SourceAlpha" type="matrix" values="0 0 0 0 0 0 0 0 0 0 0 0 0 0 0 0 0 0 127 0" result="hardAlpha"/>
<feOffset dx="-4.67168" dy="-14.015"/>
<feGaussianBlur stdDeviation="14.015"/>
<feComposite in2="hardAlpha" operator="arithmetic" k2="-1" k3="1"/>
<feColorMatrix type="matrix" values="0 0 0 0 1 0 0 0 0 0.254902 0 0 0 0 0.6 0 0 0 0.59 0"/>
<feBlend mode="normal" in2="shape" result="effect2_innerShadow_1767_5893"/>
<feColorMatrix in="SourceAlpha" type="matrix" values="0 0 0 0 0 0 0 0 0 0 0 0 0 0 0 0 0 0 127 0" result="hardAlpha"/>
<feOffset dx="4.67168" dy="28.0301"/>
<feGaussianBlur stdDeviation="11.6792"/>
<feComposite in2="hardAlpha" operator="arithmetic" k2="-1" k3="1"/>
<feColorMatrix type="matrix" values="0 0 0 0 1 0 0 0 0 0.979167 0 0 0 0 0.979167 0 0 0 0.51 0"/>
<feBlend mode="normal" in2="effect2_innerShadow_1767_5893" result="effect3_innerShadow_1767_5893"/>
<feColorMatrix in="SourceAlpha" type="matrix" values="0 0 0 0 0 0 0 0 0 0 0 0 0 0 0 0 0 0 127 0" result="hardAlpha"/>
<feOffset dx="-9.34335" dy="4.67168"/>
<feGaussianBlur stdDeviation="7.00751"/>
<feComposite in2="hardAlpha" operator="arithmetic" k2="-1" k3="1"/>
<feColorMatrix type="matrix" values="0 0 0 0 1 0 0 0 0 1 0 0 0 0 1 0 0 0 0.43 0"/>
<feBlend mode="normal" in2="effect3_innerShadow_1767_5893" result="effect4_innerShadow_1767_5893"/>
</filter>
</defs>
</svg>
