<svg width="30" height="30" viewBox="0 0 30 30" fill="none" xmlns="http://www.w3.org/2000/svg">
<path d="M14.9999 0C6.71586 0 0 6.71569 0 14.9997C0 23.2847 6.71586 30 14.9999 30C23.2843 30 30 23.2847 30 14.9997C30 6.71569 23.2843 0 14.9999 0Z" fill="#1ED760"/>
<path d="M20.1557 19.9027C19.9474 20.2443 19.5028 20.3512 19.1624 20.1431C16.4409 18.4797 13.0154 18.1041 8.98116 19.0256C8.59241 19.1147 8.2049 18.8711 8.11633 18.4825C8.0272 18.0937 8.26995 17.7062 8.65953 17.6175C13.0743 16.6084 16.8612 17.0426 19.916 18.9093C20.2566 19.1173 20.3638 19.5623 20.1557 19.9027Z" fill="white"/>
<path d="M21.5739 16.7466C21.3118 17.1719 20.7557 17.3053 20.331 17.0441C17.2165 15.1297 12.4671 14.575 8.78236 15.6935C8.30462 15.8379 7.79989 15.5686 7.65471 15.0915C7.51078 14.6138 7.78024 14.11 8.25729 13.9647C12.4666 12.6873 17.6994 13.306 21.2766 15.5044C21.7014 15.7659 21.8351 16.3223 21.5739 16.7466Z" fill="white"/>
<path d="M21.696 13.4609C17.9602 11.2423 11.7981 11.0383 8.23176 12.1207C7.65894 12.2945 7.05333 11.9712 6.87992 11.3986C6.70637 10.8255 7.02925 10.2203 7.60234 10.0462C11.6963 8.80352 18.5018 9.0435 22.8025 11.5965C23.3178 11.9023 23.4866 12.5676 23.1813 13.0819C22.8757 13.597 22.2099 13.7668 21.696 13.4609Z" fill="white"/>
</svg>
