<svg width="61" height="26" viewBox="0 0 61 26" fill="none" xmlns="http://www.w3.org/2000/svg">
<path d="M37.5355 6.58028L34.4839 9.55434L35.2008 13.749C35.2335 13.9278 35.2144 14.1121 35.1457 14.2803C35.0771 14.4485 34.9617 14.5936 34.8133 14.6984C34.651 14.8193 34.4538 14.8839 34.2514 14.8825C34.0937 14.8806 33.9383 14.8442 33.7961 14.7759L33.7573 14.7565L30.0277 12.79L29.5433 13.0418L26.2592 14.7759C26.1139 14.847 25.9536 14.8824 25.7919 14.879C25.6301 14.8756 25.4715 14.8336 25.3292 14.7565L25.242 14.6984C25.0936 14.5936 24.9783 14.4485 24.9096 14.2803C24.8409 14.1121 24.8218 13.9278 24.8545 13.749L25.5714 9.55434L22.5199 6.58028C22.3919 6.45353 22.3018 6.29362 22.2597 6.11852C22.2177 5.94341 22.2252 5.76004 22.2815 5.58899C22.3379 5.41794 22.4408 5.26598 22.5787 5.15017C22.7167 5.03437 22.8841 4.9593 23.0623 4.93341L27.2764 4.32309L29.1558 0.496531C29.2381 0.330072 29.3748 0.196756 29.5433 0.118717C29.7748 -0.00366963 30.0444 -0.0327113 30.2966 0.0375607C30.5489 0.107833 30.7647 0.272079 30.8995 0.496531L32.7789 4.32309L36.993 4.93341C37.1712 4.9593 37.3387 5.03437 37.4766 5.15017C37.6145 5.26598 37.7174 5.41794 37.7738 5.58899C37.8301 5.76004 37.8377 5.94341 37.7956 6.11852C37.7535 6.29362 37.6634 6.45353 37.5355 6.58028Z" fill="#FFB74D"/>
<path d="M50.5168 13.3518L48.2402 15.5702L48.7827 18.709C48.8039 18.848 48.7951 18.99 48.7568 19.1254C48.7185 19.2607 48.6517 19.3863 48.5608 19.4937C48.47 19.6011 48.3572 19.6878 48.23 19.7479C48.1029 19.8081 47.9643 19.8403 47.8237 19.8424C47.6676 19.843 47.514 19.8029 47.378 19.7262L47.3393 19.7068L44.559 18.244L44.0746 18.4959L41.7399 19.7262C41.5959 19.8018 41.4351 19.8398 41.2724 19.8364C41.1098 19.833 40.9507 19.7884 40.8099 19.7068L40.7227 19.6487C40.5769 19.5438 40.4634 19.4002 40.3949 19.2341C40.3264 19.0681 40.3058 18.8862 40.3352 18.709L40.8777 15.5702L38.6012 13.3518C38.4721 13.2264 38.3809 13.0673 38.3381 12.8925C38.2953 12.7178 38.3025 12.5345 38.359 12.3637C38.4112 12.191 38.5121 12.0371 38.6495 11.9202C38.787 11.8034 38.9552 11.7287 39.134 11.7049L42.2824 11.2399L43.6871 8.39179C43.7694 8.22533 43.9061 8.09202 44.0746 8.01398C44.3061 7.8916 44.5757 7.86255 44.828 7.93282C45.0802 8.0031 45.296 8.16734 45.4309 8.39179L46.8355 11.2399L49.984 11.7049C50.1628 11.7287 50.331 11.8034 50.4684 11.9202C50.6059 12.0371 50.7068 12.191 50.759 12.3637C50.8155 12.5345 50.8227 12.7178 50.7799 12.8925C50.7371 13.0673 50.6459 13.2264 50.5168 13.3518Z" fill="#FFB74D"/>
<path d="M21.4543 13.3518L19.1777 15.5702L19.7202 18.709C19.7511 18.888 19.7309 19.0721 19.6622 19.2403C19.5934 19.4084 19.4787 19.5538 19.3312 19.6599C19.1837 19.766 19.0093 19.8284 18.828 19.8402C18.6467 19.8519 18.4658 19.8124 18.3059 19.7262L18.2671 19.7068L15.4965 18.244L15.0121 18.4959L12.6871 19.7262C12.5431 19.8019 12.3823 19.8399 12.2196 19.8365C12.057 19.8331 11.8978 19.7885 11.7571 19.7068C11.7236 19.6896 11.6912 19.6702 11.6602 19.6487C11.5144 19.5438 11.4009 19.4002 11.3324 19.2341C11.2639 19.0681 11.2433 18.8862 11.2727 18.709L11.8152 15.5702L9.53867 13.3518C9.4096 13.2264 9.31842 13.0673 9.27559 12.8925C9.23276 12.7178 9.24 12.5345 9.29649 12.3637C9.34872 12.191 9.44959 12.0371 9.58703 11.9202C9.72448 11.8034 9.89267 11.7287 10.0715 11.7049L13.2199 11.2399L14.6246 8.39179C14.7069 8.22533 14.8436 8.09202 15.0121 8.01398C15.2436 7.8916 15.5132 7.86255 15.7655 7.93282C16.0177 8.0031 16.2335 8.16734 16.3684 8.39179L17.773 11.2399L20.9215 11.7049C21.1003 11.7287 21.2685 11.8034 21.4059 11.9202C21.5434 12.0371 21.6443 12.191 21.6965 12.3637C21.753 12.5345 21.7602 12.7178 21.7174 12.8925C21.6746 13.0673 21.5834 13.2264 21.4543 13.3518Z" fill="#FFB74D"/>
<path d="M59.7682 20.2785L58.1504 21.8575L58.5282 24.076C58.56 24.2537 58.5414 24.4368 58.4747 24.6045C58.4079 24.7722 58.2956 24.918 58.1504 25.0253C57.9839 25.1451 57.784 25.2095 57.5789 25.2094C57.4211 25.2075 57.2657 25.1711 57.1236 25.1028L57.0848 25.0835L55.1279 24.0469L54.6436 24.2988L53.1323 25.1028C52.9883 25.1786 52.8275 25.2165 52.6648 25.2132C52.5022 25.2098 52.343 25.1651 52.2023 25.0835C52.1688 25.0662 52.1364 25.0468 52.1054 25.0253C51.9603 24.918 51.8479 24.7722 51.7812 24.6045C51.7144 24.4368 51.6959 24.2537 51.7276 24.076L52.1054 21.8575L50.4876 20.2785C50.3597 20.1517 50.2696 19.9918 50.2275 19.8167C50.1854 19.6416 50.193 19.4582 50.2493 19.2872C50.3057 19.1161 50.4086 18.9641 50.5465 18.8483C50.6844 18.7325 50.8519 18.6575 51.0301 18.6316L53.2582 18.3022L54.2561 16.2775C54.3383 16.1111 54.4751 15.9777 54.6436 15.8997C54.8749 15.7766 55.1448 15.7472 55.3972 15.8175C55.6497 15.8878 55.8654 16.0525 55.9998 16.2775L56.9976 18.3022L59.2257 18.6316C59.404 18.6575 59.5714 18.7325 59.7094 18.8483C59.8473 18.9641 59.9502 19.1161 60.0066 19.2872C60.0629 19.4582 60.0704 19.6416 60.0284 19.8167C59.9863 19.9918 59.8962 20.1517 59.7682 20.2785Z" fill="#FFB74D"/>
<path d="M9.56756 20.2785L7.94975 21.8575L8.32757 24.076C8.36027 24.2547 8.34117 24.439 8.27251 24.6072C8.20385 24.7755 8.08849 24.9205 7.94006 25.0253C7.77781 25.1462 7.58053 25.2109 7.37819 25.2094C7.22046 25.2075 7.06506 25.1711 6.92288 25.1028L6.88413 25.0835L4.92725 24.0469L4.44288 24.2988L2.93163 25.1028C2.78765 25.1786 2.62679 25.2165 2.46413 25.2132C2.30147 25.2098 2.14233 25.1651 2.00163 25.0835C1.96808 25.0662 1.93572 25.0468 1.90475 25.0253C1.75957 24.918 1.64726 24.7722 1.5805 24.6045C1.51374 24.4368 1.49519 24.2537 1.52694 24.076L1.90475 21.8575L0.28694 20.2785C0.159002 20.1517 0.0689296 19.9918 0.0268348 19.8167C-0.0152599 19.6416 -0.00771023 19.4582 0.0486364 19.2872C0.104983 19.1161 0.207895 18.9641 0.345819 18.8483C0.483743 18.7325 0.651218 18.6575 0.82944 18.6316L3.05756 18.3022L4.05538 16.2775C4.13766 16.1111 4.27439 15.9777 4.44288 15.8997C4.67423 15.7766 4.94407 15.7472 5.19653 15.8175C5.44899 15.8878 5.66474 16.0525 5.79913 16.2775L6.79694 18.3022L9.02506 18.6316C9.20329 18.6575 9.37076 18.7325 9.50868 18.8483C9.64661 18.9641 9.74952 19.1161 9.80587 19.2872C9.86222 19.4582 9.86976 19.6416 9.82767 19.8167C9.78557 19.9918 9.6955 20.1517 9.56756 20.2785Z" fill="#FFB74D"/>
<path d="M36.5667 6.58034L33.5152 9.5544L34.232 13.7491C34.2647 13.9278 34.2456 14.1122 34.177 14.2804C34.1083 14.4486 33.993 14.5937 33.8445 14.6985L33.7573 14.7566L30.0277 12.79L29.5433 13.0419L29.0589 12.79L25.3292 14.7566L25.242 14.6985C25.0936 14.5937 24.9783 14.4486 24.9096 14.2804C24.8409 14.1122 24.8218 13.9278 24.8545 13.7491L25.5714 9.5544L22.5199 6.58034C22.3919 6.45359 22.3018 6.29368 22.2597 6.11858C22.2177 5.94347 22.2252 5.7601 22.2815 5.58905C22.3379 5.418 22.4408 5.26604 22.5787 5.15023C22.7167 5.03443 22.8841 4.95936 23.0623 4.93346L27.2764 4.32315L29.1558 0.496588C29.2381 0.330129 29.3748 0.196813 29.5433 0.118774C29.7118 0.196813 29.8485 0.330129 29.9308 0.496588L31.8102 4.32315L36.0242 4.93346C36.2024 4.95936 36.3699 5.03443 36.5078 5.15023C36.6458 5.26604 36.7487 5.418 36.805 5.58905C36.8614 5.7601 36.8689 5.94347 36.8268 6.11858C36.7847 6.29368 36.6947 6.45359 36.5667 6.58034Z" fill="#FFCC80"/>
<path d="M49.5481 13.3519L47.2715 15.5703L47.814 18.709C47.8435 18.8862 47.8228 19.0681 47.7543 19.2342C47.6858 19.4002 47.5723 19.5438 47.4265 19.6487L47.3393 19.7068L44.559 18.244L44.0746 18.4959L43.5902 18.244L40.8099 19.7068L40.7227 19.6487C40.5769 19.5438 40.4634 19.4002 40.3949 19.2342C40.3264 19.0681 40.3058 18.8862 40.3352 18.709L40.8777 15.5703L38.6012 13.3519C38.4721 13.2265 38.3809 13.0673 38.3381 12.8926C38.2953 12.7178 38.3025 12.5346 38.359 12.3637C38.4112 12.1911 38.5121 12.0371 38.6495 11.9203C38.787 11.8035 38.9552 11.7287 39.134 11.705L42.2824 11.24L43.6871 8.39185C43.7694 8.22539 43.9061 8.09208 44.0746 8.01404C44.2431 8.09208 44.3798 8.22539 44.4621 8.39185L45.8668 11.24L49.0152 11.705C49.1941 11.7287 49.3622 11.8035 49.4997 11.9203C49.6371 12.0371 49.738 12.1911 49.7902 12.3637C49.8467 12.5346 49.854 12.7178 49.8111 12.8926C49.7683 13.0673 49.6771 13.2265 49.5481 13.3519Z" fill="#FFCC80"/>
<path d="M20.4855 13.3519L18.209 15.5703L18.7515 18.709C18.781 18.8862 18.7603 19.0681 18.6918 19.2342C18.6233 19.4002 18.5098 19.5438 18.364 19.6487C18.333 19.6702 18.3007 19.6896 18.2671 19.7068L15.4965 18.244L15.0121 18.4959L14.5277 18.244L11.7571 19.7068C11.7236 19.6896 11.6912 19.6702 11.6602 19.6487C11.5144 19.5438 11.4009 19.4002 11.3324 19.2342C11.2639 19.0681 11.2433 18.8862 11.2727 18.709L11.8152 15.5703L9.53867 13.3519C9.4096 13.2265 9.31842 13.0673 9.27559 12.8926C9.23276 12.7178 9.24 12.5346 9.29649 12.3637C9.34872 12.1911 9.44959 12.0371 9.58703 11.9203C9.72448 11.8035 9.89267 11.7287 10.0715 11.705L13.2199 11.24L14.6246 8.39185C14.7069 8.22539 14.8436 8.09208 15.0121 8.01404C15.1806 8.09208 15.3173 8.22539 15.3996 8.39185L16.8043 11.24L19.9527 11.705C20.1316 11.7287 20.2997 11.8035 20.4372 11.9203C20.5746 12.0371 20.6755 12.1911 20.7277 12.3637C20.7842 12.5346 20.7915 12.7178 20.7486 12.8926C20.7058 13.0673 20.6146 13.2265 20.4855 13.3519Z" fill="#FFCC80"/>
<path d="M58.7995 20.2784L57.1817 21.8575L57.5595 24.0759C57.5912 24.2536 57.5727 24.4367 57.5059 24.6045C57.4392 24.7722 57.3269 24.918 57.1817 25.0253C57.1526 25.0447 57.1139 25.064 57.0848 25.0834L55.1279 24.0468L54.6436 24.2987L54.1592 24.0468L52.2023 25.0834C52.1688 25.0662 52.1364 25.0468 52.1054 25.0253C51.9603 24.918 51.8479 24.7722 51.7812 24.6045C51.7144 24.4367 51.6959 24.2536 51.7276 24.0759L52.1054 21.8575L50.4876 20.2784C50.3597 20.1517 50.2696 19.9918 50.2275 19.8166C50.1854 19.6415 50.193 19.4582 50.2493 19.2871C50.3057 19.1161 50.4086 18.9641 50.5465 18.8483C50.6844 18.7325 50.8519 18.6574 51.0301 18.6315L53.2582 18.3022L54.2561 16.2775C54.3383 16.111 54.4751 15.9777 54.6436 15.8997C54.812 15.9777 54.9488 16.111 55.0311 16.2775L56.0289 18.3022L58.257 18.6315C58.4352 18.6574 58.6027 18.7325 58.7406 18.8483C58.8785 18.9641 58.9815 19.1161 59.0378 19.2871C59.0941 19.4582 59.1017 19.6415 59.0596 19.8166C59.0175 19.9918 58.9274 20.1517 58.7995 20.2784Z" fill="#FFCC80"/>
<path d="M8.59881 20.2784L6.981 21.8575L7.35882 24.0759C7.39152 24.2546 7.37242 24.439 7.30376 24.6072C7.2351 24.7754 7.11974 24.9205 6.97131 25.0253L6.88413 25.0834L4.92725 24.0468L4.44288 24.2987L3.9585 24.0468L2.00163 25.0834C1.96808 25.0662 1.93572 25.0468 1.90475 25.0253C1.75957 24.918 1.64726 24.7722 1.5805 24.6045C1.51374 24.4367 1.49519 24.2536 1.52694 24.0759L1.90475 21.8575L0.28694 20.2784C0.159002 20.1517 0.0689296 19.9918 0.0268348 19.8166C-0.0152599 19.6415 -0.00771023 19.4582 0.0486364 19.2871C0.104983 19.1161 0.207895 18.9641 0.345819 18.8483C0.483743 18.7325 0.651218 18.6574 0.82944 18.6315L3.05756 18.3022L4.05538 16.2775C4.13766 16.111 4.27439 15.9777 4.44288 15.8997C4.61137 15.9777 4.7481 16.111 4.83038 16.2775L5.82819 18.3022L8.05631 18.6315C8.23454 18.6574 8.40201 18.7325 8.53993 18.8483C8.67786 18.9641 8.78077 19.1161 8.83712 19.2871C8.89347 19.4582 8.90101 19.6415 8.85892 19.8166C8.81682 19.9918 8.72675 20.1517 8.59881 20.2784Z" fill="#FFCC80"/>
</svg>
